IKResults
version=1
nRows=8
nColumns=67
inDegrees=yes

Units are S.I. units (second, meters, Newtons, ...)
Angles are in degrees.

endheader
time	pelvis_tilt	pelvis_list	pelvis_rotation	pelvis_tx	pelvis_ty	pelvis_tz	hip_flexion_r	hip_adduction_r	hip_rotation_r	knee_angle_r	knee_rot_r	knee_adduc_r	ankle_angle_r	ankle_rot_r	ankle_add_r	subtalar_angle_r	mtp_angle_r	mtp_rot_r	mtp_add_r	hip_flexion_l	hip_adduction_l	hip_rotation_l	knee_angle_l	knee_rot_l	knee_adduc_l	ankle_angle_l	ankle_rot_l	ankle_add_l	subtalar_angle_l	mtp_angle_l	mtp_rot_l	mtp_add_l	lumbar_extension	lumbar_bending	lumbar_rotation	neck_flexion	neck_lateral_bending	neck_rotation	arm_flex_r	arm_add_r	arm_rot_r	elbow_flex_r	elbow_rot_r	elbow_add_r	pro_sup_r	wrist_flex_r	wrist_adduc_r	wrist_rot_r	wrist_dev_r	hand_finger_flex_r	hand_finger_adduc_r	hand_finger_rot_r	arm_flex_l	arm_add_l	arm_rot_l	elbow_flex_l	elbow_rot_l	elbow_add_l	pro_sup_l	wrist_flex_l	wrist_adduc_l	wrist_rot_l	wrist_dev_l	hand_finger_flex_l	hand_finger_adduc_l	hand_finger_rot_l
      4.37000000	     -6.71264208	    -13.25911822	     12.59452274	     -1.13783329	      0.60766419	      0.83334098	     32.17019643	      0.64100215	    -21.71976711	    -47.57019581	     -5.00000000	     -3.89146667	     20.97408505	     -4.78682283	     -1.33304659	    -26.72548455	      1.55408209	     -2.00000000	      2.00000000	     29.22587457	    -11.32965571	     21.42407102	    -53.01205299	      5.00000000	      5.00000000	     23.82528366	      2.98838303	      3.38609765	    -24.00149870	      4.13621629	      2.00000000	     -1.90954243	     -6.01651664	     13.52507285	     -0.40758908	      0.00000000	      0.00000000	      0.00000000	      0.00000000	      0.00000000	      0.00000000	      0.00000000	      0.00000000	      0.00000000	     -0.00042092	      0.00000000	      0.00000000	      0.00000000	      0.00000000	      0.00000000	      0.00000000	      0.00000000	      0.00000000	      0.00000000	      0.00000000	      0.00000000	      0.00000000	      0.00000000	      0.00000000	      0.00000000	      0.00000000	      0.00000000	      0.00000000	      0.00000000	      0.00000000	      0.00000000
      4.37500000	     -6.60835915	    -13.39722552	     12.39146586	     -1.13659570	      0.60718125	      0.83425057	     32.08921481	      0.94929220	    -21.75638121	    -47.72487718	     -5.00000000	     -3.98133436	     21.13771080	     -4.75249908	     -1.37744422	    -26.75515062	      1.57709846	     -2.00000000	      2.00000000	     29.34099252	    -11.46803134	     21.39211867	    -53.72404853	      5.00000000	      5.00000000	     23.65380977	      3.23096984	      3.34131227	    -24.02866114	      4.08474966	      2.00000000	     -1.90159227	     -6.19195815	     13.93932953	     -0.31558054	      0.00000000	      0.00000000	      0.00000000	      0.00000000	      0.00000000	      0.00000000	      0.00000000	      0.00000000	      0.00000000	     -0.00042092	      0.00000000	      0.00000000	      0.00000000	      0.00000000	      0.00000000	      0.00000000	      0.00000000	      0.00000000	      0.00000000	      0.00000000	      0.00000000	      0.00000000	      0.00000000	      0.00000000	      0.00000000	      0.00000000	      0.00000000	      0.00000000	      0.00000000	      0.00000000	      0.00000000
      4.38000000	     -6.59633255	    -13.37701461	     12.32155351	     -1.13419276	      0.60689391	      0.83591424	     31.90847951	      1.08430217	    -21.83722396	    -47.86546018	     -5.00000000	     -3.90996285	     21.16615140	     -4.74746825	     -1.38419159	    -26.75971891	      1.58097186	     -2.00000000	      2.00000000	     29.29808989	    -11.58167833	     21.39826763	    -54.06324662	      5.00000000	      5.00000000	     23.61521932	      3.27885795	      3.33268713	    -24.03320607	      4.07526246	      2.00000000	     -1.90014969	     -6.04261905	     13.86364708	     -0.29734877	      0.00000000	      0.00000000	      0.00000000	      0.00000000	      0.00000000	      0.00000000	      0.00000000	      0.00000000	      0.00000000	     -0.00042092	      0.00000000	      0.00000000	      0.00000000	      0.00000000	      0.00000000	      0.00000000	      0.00000000	      0.00000000	      0.00000000	      0.00000000	      0.00000000	      0.00000000	      0.00000000	      0.00000000	      0.00000000	      0.00000000	      0.00000000	      0.00000000	      0.00000000	      0.00000000	      0.00000000
      4.38500000	     -6.38062791	    -14.15070252	     11.86598559	     -1.13202401	      0.60667522	      0.83795653	     31.63528525	      2.37434206	    -21.80451952	    -47.60731755	     -5.00000000	     -3.92236714	     21.93623322	     -4.54417051	     -1.54554773	    -26.83312788	      1.66752415	     -2.00000000	      2.00000000	     29.43973802	    -12.76814529	     21.27525001	    -54.72942092	      5.00000000	      5.00000000	     22.59188337	      4.07889913	      3.10364362	    -23.90980899	      3.87360091	      2.00000000	     -1.86402346	     -6.16219237	     14.78538495	      0.31372937	      0.00000000	      0.00000000	      0.00000000	      0.00000000	      0.00000000	      0.00000000	      0.00000000	      0.00000000	      0.00000000	     -0.00042092	      0.00000000	      0.00000000	      0.00000000	      0.00000000	      0.00000000	      0.00000000	      0.00000000	      0.00000000	      0.00000000	      0.00000000	      0.00000000	      0.00000000	      0.00000000	      0.00000000	      0.00000000	      0.00000000	      0.00000000	      0.00000000	      0.00000000	      0.00000000	      0.00000000
      4.39000000	     -6.35971612	    -14.10073291	     11.78272486	     -1.12968957	      0.60644802	      0.83919680	     31.41753111	      2.43593085	    -21.88156795	    -47.73475475	     -5.00000000	     -3.86823119	     21.94686620	     -4.54966572	     -1.54455762	    -26.83307355	      1.66695474	     -2.00000000	      2.00000000	     29.42881814	    -12.83092132	     21.16349754	    -55.14633376	      5.00000000	      5.00000000	     22.56819085	      4.09107461	      3.10117498	    -23.90361110	      3.87130770	      2.00000000	     -1.86478447	     -6.01373923	     14.75596693	      0.25978701	      0.00000000	      0.00000000	      0.00000000	      0.00000000	      0.00000000	      0.00000000	      0.00000000	      0.00000000	      0.00000000	     -0.00042092	      0.00000000	      0.00000000	      0.00000000	      0.00000000	      0.00000000	      0.00000000	      0.00000000	      0.00000000	      0.00000000	      0.00000000	      0.00000000	      0.00000000	      0.00000000	      0.00000000	      0.00000000	      0.00000000	      0.00000000	      0.00000000	      0.00000000	      0.00000000	      0.00000000
      4.39500000	     -6.31075200	    -14.11025288	     11.58334896	     -1.12813063	      0.60618139	      0.83999795	     31.24164613	      2.52674778	    -21.91895972	    -47.79607647	     -5.00000000	     -3.82545096	     22.02828535	     -4.53564606	     -1.54967462	    -26.82986166	      1.66929974	     -2.00000000	      2.00000000	     29.59441284	    -12.94850904	     20.84437176	    -55.83163791	      5.00000000	      5.00000000	     22.42988864	      4.09974481	      3.08011704	    -23.83976870	      3.86150956	      2.00000000	     -1.86475979	     -6.11541294	     14.98961038	      0.19814612	      0.00000000	      0.00000000	      0.00000000	      0.00000000	      0.00000000	      0.00000000	      0.00000000	      0.00000000	      0.00000000	     -0.00042092	      0.00000000	      0.00000000	      0.00000000	      0.00000000	      0.00000000	      0.00000000	      0.00000000	      0.00000000	      0.00000000	      0.00000000	      0.00000000	      0.00000000	      0.00000000	      0.00000000	      0.00000000	      0.00000000	      0.00000000	      0.00000000	      0.00000000	      0.00000000	      0.00000000
      4.40000000	     -6.18995336	    -14.45703923	     11.16565597	     -1.12634062	      0.60590202	      0.84201992	     31.11552952	      3.27891309	    -21.68614911	    -47.86543156	     -5.00000000	     -3.76143286	     22.46478668	     -4.40622787	     -1.55457772	    -26.76256195	      1.67177081	     -2.00000000	      2.00000000	     29.80309115	    -13.73037971	     20.46629960	    -56.53121826	      5.00000000	      5.00000000	     21.65175991	      3.97127215	      2.97254161	    -23.39750795	      3.83292377	      2.00000000	     -1.86757780	     -6.30471431	     15.34956796	      0.76851778	      0.00000000	      0.00000000	      0.00000000	      0.00000000	      0.00000000	      0.00000000	      0.00000000	      0.00000000	      0.00000000	     -0.00042092	      0.00000000	      0.00000000	      0.00000000	      0.00000000	      0.00000000	      0.00000000	      0.00000000	      0.00000000	      0.00000000	      0.00000000	      0.00000000	      0.00000000	      0.00000000	      0.00000000	      0.00000000	      0.00000000	      0.00000000	      0.00000000	      0.00000000	      0.00000000	      0.00000000
      4.40500000	     -6.17872710	    -14.38978173	     11.02720694	     -1.12394488	      0.60582956	      0.84306822	     30.85654980	      3.28408236	    -21.77198123	    -47.94102726	     -5.00000000	     -3.67657629	     22.47677370	     -4.41592522	     -1.55056295	    -26.76231432	      1.66894300	     -2.00000000	      2.00000000	     29.83967104	    -13.84834281	     20.28858940	    -56.99309421	      5.00000000	      4.91032405	     21.62710812	      3.97136676	      2.97377693	    -23.38739026	      3.83501197	      2.00000000	     -1.86969831	     -6.16672057	     15.32973835	      0.69128978	      0.00000000	      0.00000000	      0.00000000	      0.00000000	      0.00000000	      0.00000000	      0.00000000	      0.00000000	      0.00000000	     -0.00042092	      0.00000000	      0.00000000	      0.00000000	      0.00000000	      0.00000000	      0.00000000	      0.00000000	      0.00000000	      0.00000000	      0.00000000	      0.00000000	      0.00000000	      0.00000000	      0.00000000	      0.00000000	      0.00000000	      0.00000000	      0.00000000	      0.00000000	      0.00000000	      0.00000000
